CodaCaption-Medium.ufo
<glyph name="exclam" format="1">
  <advance width="563"/>
  <unicode hex="0021"/>
  <outline>
    <contour>
      <point x="283" y="-23" type="curve" smooth="yes"/>
      <point x="357" y="-23"/>
      <point x="429" y="27"/>
      <point x="429" y="132" type="curve" smooth="yes"/>
      <point x="429" y="234"/>
      <point x="353" y="287"/>
      <point x="278" y="287" type="curve" smooth="yes"/>
      <point x="205" y="287"/>
      <point x="133" y="236"/>
      <point x="133" y="132" type="curve" smooth="yes"/>
      <point x="133" y="30"/>
      <point x="209" y="-23"/>
    </contour>
    <contour>
      <point x="281" y="503" type="curve" smooth="yes"/>
      <point x="294" y="503"/>
      <point x="309" y="510"/>
      <point x="313" y="543" type="curve" smooth="yes"/>
      <point x="352" y="912"/>
      <point x="407" y="1370"/>
      <point x="407" y="1417" type="curve" smooth="yes"/>
      <point x="407" y="1516"/>
      <point x="369" y="1565"/>
      <point x="280" y="1565" type="curve" smooth="yes"/>
      <point x="192" y="1565"/>
      <point x="155" y="1516"/>
      <point x="155" y="1417" type="curve" smooth="yes"/>
      <point x="155" y="1371"/>
      <point x="207" y="913"/>
      <point x="248" y="543" type="curve" smooth="yes"/>
      <point x="252" y="510"/>
      <point x="267" y="503"/>
    </contour>
  </outline>
</glyph>
<glyph name="numbersign" format="1">
  <advance width="1629"/>
  <unicode hex="0023"/>
  <outline>
    <contour>
      <point x="628" y="568" type="line"/>
      <point x="695" y="967" type="line"/>
      <point x="1004" y="967" type="line"/>
      <point x="937" y="568" type="line"/>
    </contour>
    <contour>
      <point x="314" y="0" type="line"/>
      <point x="530" y="0" type="line"/>
      <point x="601" y="409" type="line"/>
      <point x="913" y="409" type="line"/>
      <point x="844" y="0" type="line"/>
      <point x="1059" y="0" type="line"/>
      <point x="1128" y="409" type="line"/>
      <point x="1393" y="409" type="line"/>
      <point x="1417" y="568" type="line"/>
      <point x="1153" y="568" type="line"/>
      <point x="1218" y="967" type="line"/>
      <point x="1481" y="967" type="line"/>
      <point x="1505" y="1139" type="line"/>
      <point x="1247" y="1139" type="line"/>
      <point x="1307" y="1503" type="line"/>
      <point x="1092" y="1503" type="line"/>
      <point x="1031" y="1139" type="line"/>
      <point x="724" y="1139" type="line"/>
      <point x="786" y="1503" type="line"/>
      <point x="566" y="1503" type="line"/>
      <point x="503" y="1139" type="line"/>
      <point x="245" y="1139" type="line"/>
      <point x="218" y="967" type="line"/>
      <point x="474" y="967" type="line"/>
      <point x="409" y="568" type="line"/>
      <point x="151" y="568" type="line"/>
      <point x="124" y="409" type="line"/>
      <point x="382" y="409" type="line"/>
    </contour>
  </outline>
</glyph>
<glyph name="ampersand" format="1">
  <advance width="1512"/>
  <unicode hex="0026"/>
  <outline>
    <contour>
      <point x="698" y="150" type="curve" smooth="yes"/>
      <point x="463" y="150"/>
      <point x="389" y="218"/>
      <point x="389" y="365" type="curve" smooth="yes"/>
      <point x="389" y="563"/>
      <point x="392" y="729"/>
      <point x="522" y="729" type="curve" smooth="yes"/>
      <point x="1020" y="729" type="line"/>
      <point x="1020" y="343" type="line" smooth="yes"/>
      <point x="1020" y="215"/>
      <point x="982" y="150"/>
    </contour>
    <contour>
      <point x="694" y="-23" type="curve" smooth="yes"/>
      <point x="1144" y="-23"/>
      <point x="1247" y="86"/>
      <point x="1246" y="390" type="curve" smooth="yes"/>
      <point x="1245" y="728" type="line"/>
      <point x="1382" y="729" type="line"/>
      <point x="1382" y="862" type="line"/>
      <point x="1246" y="862" type="line"/>
      <point x="1246" y="974" type="line"/>
      <point x="1020" y="974" type="line"/>
      <point x="1020" y="862" type="line"/>
      <point x="584" y="862" type="line" smooth="yes"/>
      <point x="507" y="862"/>
      <point x="449" y="899"/>
      <point x="446" y="1097" type="curve"/>
      <point x="446" y="1174" type="line" smooth="yes"/>
      <point x="446" y="1315"/>
      <point x="523" y="1359"/>
      <point x="727" y="1359" type="curve" smooth="yes"/>
      <point x="856" y="1359"/>
      <point x="942" y="1356"/>
      <point x="982" y="1335" type="curve" smooth="yes"/>
      <point x="1021" y="1314"/>
      <point x="1026" y="1256"/>
      <point x="1031" y="1186" type="curve"/>
      <point x="1231" y="1203" type="line"/>
      <point x="1231" y="1297" type="line" smooth="yes"/>
      <point x="1231" y="1494"/>
      <point x="1050" y="1533"/>
      <point x="729" y="1533" type="curve" smooth="yes"/>
      <point x="344" y="1533"/>
      <point x="200" y="1449"/>
      <point x="200" y="1152" type="curve" smooth="yes"/>
      <point x="200" y="1020"/>
      <point x="233" y="926"/>
      <point x="286" y="875" type="curve" smooth="yes"/>
      <point x="300" y="858"/>
      <point x="347" y="842"/>
      <point x="366" y="833" type="curve"/>
      <point x="366" y="826" type="line"/>
      <point x="341" y="821"/>
      <point x="305" y="809"/>
      <point x="285" y="795" type="curve" smooth="yes"/>
      <point x="192" y="738"/>
      <point x="145" y="590"/>
      <point x="145" y="393" type="curve" smooth="yes"/>
      <point x="145" y="96"/>
      <point x="319" y="-23"/>
    </contour>
  </outline>
</glyph>
<glyph name="seven" format="1">
  <advance width="1319"/>
  <unicode hex="0037"/>
  <outline>
    <contour>
      <point x="406" y="0" type="line"/>
      <point x="654" y="0" type="line"/>
      <point x="1154" y="1318" type="line"/>
      <point x="1154" y="1503" type="line"/>
      <point x="200" y="1503" type="line"/>
      <point x="200" y="1333" type="line"/>
      <point x="913" y="1333" type="line"/>
    </contour>
  </outline>
</glyph>
<glyph name="nine" format="1">
  <advance width="1319"/>
  <unicode hex="0039"/>
  <outline>
    <contour>
      <point x="663" y="703" type="curve" smooth="yes"/>
      <point x="395" y="703"/>
      <point x="367" y="743"/>
      <point x="367" y="936" type="curve" smooth="yes"/>
      <point x="367" y="1183" type="line" smooth="yes"/>
      <point x="367" y="1320"/>
      <point x="403" y="1370"/>
      <point x="664" y="1370" type="curve" smooth="yes"/>
      <point x="923" y="1370"/>
      <point x="944" y="1299"/>
      <point x="946" y="1151" type="curve" smooth="yes"/>
      <point x="948" y="941" type="line" smooth="yes"/>
      <point x="948.043" y="934.232"/>
      <point x="948.074" y="927.609"/>
      <point x="948.074" y="921.131" type="curve" smooth="yes"/>
      <point x="948.074" y="775.418"/>
      <point x="932.039" y="703"/>
    </contour>
    <contour>
      <point x="670" y="-20" type="curve" smooth="yes"/>
      <point x="1147" y="-20"/>
      <point x="1179" y="148"/>
      <point x="1179" y="666" type="curve" smooth="yes"/>
      <point x="1179" y="882" type="line" smooth="yes"/>
      <point x="1179" y="1415"/>
      <point x="1123" y="1523"/>
      <point x="633" y="1523" type="curve" smooth="yes"/>
      <point x="249" y="1523"/>
      <point x="140" y="1425"/>
      <point x="140" y="1014" type="curve" smooth="yes"/>
      <point x="140" y="623"/>
      <point x="271" y="535"/>
      <point x="636" y="535" type="curve" smooth="yes"/>
      <point x="804" y="535"/>
      <point x="897" y="567"/>
      <point x="946" y="629" type="curve"/>
      <point x="945" y="322" type="line" smooth="yes"/>
      <point x="944" y="176"/>
      <point x="881" y="131"/>
      <point x="671" y="131" type="curve" smooth="yes"/>
      <point x="567" y="131"/>
      <point x="453" y="135"/>
      <point x="427" y="159" type="curve" smooth="yes"/>
      <point x="400" y="185"/>
      <point x="399" y="253"/>
      <point x="399" y="340" type="curve"/>
      <point x="188" y="329" type="line"/>
      <point x="188" y="225" type="line"/>
      <point x="186" y="3"/>
      <point x="425" y="-20"/>
    </contour>
  </outline>
</glyph>
<glyph name="colon" format="1">
  <advance width="621"/>
  <unicode hex="003A"/>
  <outline>
    <contour>
      <point x="312" y="925" type="curve" smooth="yes"/>
      <point x="385" y="925"/>
      <point x="458" y="978"/>
      <point x="458" y="1085" type="curve" smooth="yes"/>
      <point x="458" y="1191"/>
      <point x="384" y="1245"/>
      <point x="310" y="1245" type="curve" smooth="yes"/>
      <point x="236" y="1245"/>
      <point x="163" y="1193"/>
      <point x="163" y="1085" type="curve" smooth="yes"/>
      <point x="163" y="979"/>
      <point x="238" y="925"/>
    </contour>
    <contour>
      <point x="310" y="133" type="curve" smooth="yes"/>
      <point x="384" y="133"/>
      <point x="458" y="187"/>
      <point x="458" y="292" type="curve" smooth="yes"/>
      <point x="458" y="398"/>
      <point x="384" y="452"/>
      <point x="309" y="452" type="curve" smooth="yes"/>
      <point x="236" y="452"/>
      <point x="163" y="400"/>
      <point x="163" y="292" type="curve" smooth="yes"/>
      <point x="163" y="186"/>
      <point x="236" y="133"/>
    </contour>
  </outline>
</glyph>
<glyph name="greater" format="1">
  <advance width="1025"/>
  <unicode hex="003E"/>
  <outline>
    <contour>
      <point x="166" y="206" type="line"/>
      <point x="886" y="637" type="line"/>
      <point x="886" y="856" type="line"/>
      <point x="166" y="1301" type="line"/>
      <point x="166" y="1033" type="line"/>
      <point x="696" y="753" type="line"/>
      <point x="166" y="466" type="line"/>
    </contour>
  </outline>
</glyph>
<glyph name="question" format="1">
  <advance width="904"/>
  <unicode hex="003F"/>
  <outline>
    <contour>
      <point x="361" y="-32" type="curve" smooth="yes"/>
      <point x="434" y="-32"/>
      <point x="506" y="19"/>
      <point x="506" y="123" type="curve" smooth="yes"/>
      <point x="506" y="225"/>
      <point x="430" y="278"/>
      <point x="355" y="278" type="curve" smooth="yes"/>
      <point x="282" y="278"/>
      <point x="210" y="227"/>
      <point x="210" y="123" type="curve" smooth="yes"/>
      <point x="210" y="21"/>
      <point x="286" y="-32"/>
    </contour>
    <contour>
      <point x="365" y="449" type="curve" smooth="yes"/>
      <point x="402" y="449"/>
      <point x="418" y="468"/>
      <point x="419" y="493" type="curve" smooth="yes"/>
      <point x="427" y="601"/>
      <point x="493" y="694"/>
      <point x="584" y="802" type="curve" smooth="yes"/>
      <point x="700" y="943"/>
      <point x="785" y="1058"/>
      <point x="785" y="1200" type="curve" smooth="yes"/>
      <point x="785" y="1425"/>
      <point x="650" y="1535"/>
      <point x="399" y="1535" type="curve" smooth="yes"/>
      <point x="318" y="1535"/>
      <point x="231" y="1513"/>
      <point x="130" y="1470" type="curve"/>
      <point x="153" y="1284" type="line"/>
      <point x="262" y="1312"/>
      <point x="328" y="1325"/>
      <point x="376" y="1325" type="curve" smooth="yes"/>
      <point x="493" y="1325"/>
      <point x="551" y="1253"/>
      <point x="551" y="1149" type="curve" smooth="yes"/>
      <point x="551" y="1058"/>
      <point x="523" y="1001"/>
      <point x="468" y="921" type="curve" smooth="yes"/>
      <point x="366" y="780"/>
      <point x="313" y="681"/>
      <point x="313" y="495" type="curve" smooth="yes"/>
      <point x="313" y="473"/>
      <point x="329" y="449"/>
    </contour>
  </outline>
</glyph>
<glyph name="B" format="1">
  <advance width="1408"/>
  <unicode hex="0042"/>
  <outline>
    <contour>
      <point x="719" y="1503" type="move" name="top"/>
    </contour>
    <contour>
      <point x="440" y="871" type="line"/>
      <point x="440" y="1340" type="line"/>
      <point x="687" y="1340" type="line" smooth="yes"/>
      <point x="973" y="1340"/>
      <point x="987" y="1332"/>
      <point x="987" y="1183" type="curve" smooth="yes"/>
      <point x="987" y="984" type="line" smooth="yes"/>
      <point x="987" y="911"/>
      <point x="940" y="871"/>
      <point x="627" y="871" type="curve" smooth="yes"/>
    </contour>
    <contour>
      <point x="440" y="161" type="line"/>
      <point x="440" y="734" type="line"/>
      <point x="656" y="734" type="line" smooth="yes"/>
      <point x="1034" y="734"/>
      <point x="1031" y="709"/>
      <point x="1034" y="512" type="curve" smooth="yes"/>
      <point x="1036" y="331" type="line"/>
      <point x="1036" y="202"/>
      <point x="987" y="161"/>
      <point x="786" y="161" type="curve" smooth="yes"/>
    </contour>
    <contour>
      <point x="191" y="0" type="line"/>
      <point x="762" y="0" type="line" smooth="yes"/>
      <point x="1189" y="0"/>
      <point x="1281" y="33"/>
      <point x="1281" y="433" type="curve" smooth="yes"/>
      <point x="1281" y="627"/>
      <point x="1245" y="784"/>
      <point x="1002" y="810" type="curve"/>
      <point x="1002" y="813" type="line"/>
      <point x="1178" y="844"/>
      <point x="1230" y="913"/>
      <point x="1230" y="1118" type="curve"/>
      <point x="1229" y="1216" type="line"/>
      <point x="1225" y="1455"/>
      <point x="1070" y="1503"/>
      <point x="791" y="1503" type="curve" smooth="yes"/>
      <point x="191" y="1503" type="line"/>
    </contour>
  </outline>
</glyph>
<glyph name="C" format="1">
  <advance width="1399"/>
  <unicode hex="0043"/>
  <outline>
    <contour>
      <point x="744" y="0" type="move" name="bot"/>
    </contour>
    <contour>
      <point x="744" y="1503" type="move" name="top"/>
    </contour>
    <contour>
      <point x="154" y="1082" type="curve" smooth="yes"/>
      <point x="149" y="1004"/>
      <point x="147" y="865"/>
      <point x="147" y="754" type="curve" smooth="yes"/>
      <point x="147" y="651"/>
      <point x="148" y="510"/>
      <point x="155" y="433" type="curve" smooth="yes"/>
      <point x="181" y="85"/>
      <point x="336" y="-20"/>
      <point x="783" y="-20" type="curve" smooth="yes"/>
      <point x="1108" y="-20"/>
      <point x="1264" y="46"/>
      <point x="1285" y="341" type="curve"/>
      <point x="1293" y="463" type="line"/>
      <point x="1068" y="475" type="line"/>
      <point x="1059" y="363"/>
      <point x="1059" y="255"/>
      <point x="1024" y="211" type="curve" smooth="yes"/>
      <point x="989" y="166"/>
      <point x="909" y="148"/>
      <point x="757" y="148" type="curve" smooth="yes"/>
      <point x="494" y="148"/>
      <point x="413" y="196"/>
      <point x="406" y="288" type="curve" smooth="yes"/>
      <point x="399" y="395"/>
      <point x="398" y="571"/>
      <point x="398" y="683" type="curve" smooth="yes"/>
      <point x="398" y="844"/>
      <point x="399" y="1062"/>
      <point x="406" y="1216" type="curve" smooth="yes"/>
      <point x="413" y="1343"/>
      <point x="535" y="1355"/>
      <point x="757" y="1355" type="curve" smooth="yes"/>
      <point x="879" y="1355"/>
      <point x="957" y="1354"/>
      <point x="997" y="1319" type="curve" smooth="yes"/>
      <point x="1039" y="1283"/>
      <point x="1053" y="1175"/>
      <point x="1066" y="1038" type="curve"/>
      <point x="1293" y="1062" type="line"/>
      <point x="1285" y="1158" type="line"/>
      <point x="1257" y="1468"/>
      <point x="1086" y="1523"/>
      <point x="767" y="1523" type="curve" smooth="yes"/>
      <point x="329" y="1523"/>
      <point x="179" y="1452"/>
    </contour>
  </outline>
</glyph>
<glyph name="F" format="1">
  <advance width="1086"/>
  <unicode hex="0046"/>
  <outline>
    <contour>
      <point x="558" y="0" type="move" name="bot"/>
    </contour>
    <contour>
      <point x="602" y="1503" type="move" name="top"/>
    </contour>
    <contour>
      <point x="191" y="1503" type="line"/>
      <point x="191" y="0" type="line"/>
      <point x="442" y="0" type="line"/>
      <point x="442" y="690" type="line"/>
      <point x="941" y="690" type="line"/>
      <point x="941" y="862" type="line"/>
      <point x="442" y="862" type="line"/>
      <point x="442" y="1337" type="line"/>
      <point x="1025" y="1337" type="line"/>
      <point x="1006" y="1503" type="line"/>
    </contour>
  </outline>
</glyph>
<glyph name="G" format="1">
  <advance width="1417"/>
  <unicode hex="0047"/>
  <outline>
    <contour>
      <point x="710" y="0" type="move" name="bot"/>
    </contour>
    <contour>
      <point x="710" y="1503" type="move" name="top"/>
    </contour>
    <contour>
      <point x="175" y="1208" type="curve"/>
      <point x="152" y="1108"/>
      <point x="147" y="924"/>
      <point x="147" y="750" type="curve" smooth="yes"/>
      <point x="147" y="589"/>
      <point x="150" y="412"/>
      <point x="165" y="314" type="curve" smooth="yes"/>
      <point x="201" y="49"/>
      <point x="333" y="-20"/>
      <point x="702" y="-20" type="curve" smooth="yes"/>
      <point x="974" y="-20"/>
      <point x="1189" y="23"/>
      <point x="1285" y="110" type="curve"/>
      <point x="1285" y="748" type="line"/>
      <point x="755" y="748" type="line"/>
      <point x="770" y="595" type="line"/>
      <point x="1063" y="595" type="line"/>
      <point x="1063" y="187" type="line"/>
      <point x="1041" y="160"/>
      <point x="910" y="147"/>
      <point x="712" y="147" type="curve" smooth="yes"/>
      <point x="429" y="147"/>
      <point x="414" y="180"/>
      <point x="407" y="342" type="curve" smooth="yes"/>
      <point x="402" y="462"/>
      <point x="399" y="648"/>
      <point x="399" y="775" type="curve" smooth="yes"/>
      <point x="399" y="897"/>
      <point x="399" y="1086"/>
      <point x="407" y="1207" type="curve" smooth="yes"/>
      <point x="414" y="1319"/>
      <point x="475" y="1355"/>
      <point x="711" y="1355" type="curve" smooth="yes"/>
      <point x="930" y="1355"/>
      <point x="1019" y="1344"/>
      <point x="1022" y="1266" type="curve" smooth="yes"/>
      <point x="1032" y="1047" type="line"/>
      <point x="1262" y="1079" type="line"/>
      <point x="1263" y="1093"/>
      <point x="1263" y="1136"/>
      <point x="1263" y="1151" type="curve" smooth="yes"/>
      <point x="1263" y="1511"/>
      <point x="1006" y="1523"/>
      <point x="735" y="1523" type="curve" smooth="yes"/>
      <point x="388" y="1523"/>
      <point x="220" y="1454"/>
    </contour>
  </outline>
</glyph>
<glyph name="H" format="1">
  <advance width="1493"/>
  <unicode hex="0048"/>
  <outline>
    <contour>
      <point x="751" y="751" type="move" name="center"/>
    </contour>
    <contour>
      <point x="747" y="0" type="move" name="bot"/>
    </contour>
    <contour>
      <point x="747" y="1503" type="move" name="top"/>
    </contour>
    <contour>
      <point x="1051" y="1503" type="line"/>
      <point x="1051" y="850" type="line"/>
      <point x="442" y="850" type="line"/>
      <point x="442" y="1503" type="line"/>
      <point x="191" y="1503" type="line"/>
      <point x="191" y="0" type="line"/>
      <point x="442" y="0" type="line"/>
      <point x="442" y="684" type="line"/>
      <point x="1051" y="684" type="line"/>
      <point x="1051" y="0" type="line"/>
      <point x="1302" y="0" type="line"/>
      <point x="1302" y="1503" type="line"/>
    </contour>
  </outline>
</glyph>
<glyph name="L" format="1">
  <advance width="1040"/>
  <unicode hex="004C"/>
  <outline>
    <contour>
      <point x="557" y="0" type="move" name="bot"/>
    </contour>
    <contour>
      <point x="371" y="1122" type="move" name="caron.alt"/>
    </contour>
    <contour>
      <point x="347" y="1503" type="move" name="top"/>
    </contour>
    <contour>
      <point x="191" y="1503" type="line"/>
      <point x="191" y="0" type="line"/>
      <point x="970" y="0" type="line"/>
      <point x="988" y="164" type="line"/>
      <point x="442" y="164" type="line"/>
      <point x="442" y="1503" type="line"/>
    </contour>
  </outline>
</glyph>
<glyph name="R" format="1">
  <advance width="1423"/>
  <unicode hex="0052"/>
  <outline>
    <contour>
      <point x="719" y="0" type="move" name="bot"/>
    </contour>
    <contour>
      <point x="719" y="1503" type="move" name="top"/>
    </contour>
    <contour>
      <point x="441" y="810" type="line"/>
      <point x="441" y="1340" type="line"/>
      <point x="758" y="1340" type="line" smooth="yes"/>
      <point x="1005" y="1340"/>
      <point x="1017" y="1272"/>
      <point x="1017" y="1088" type="curve" smooth="yes"/>
      <point x="1017" y="889"/>
      <point x="992" y="810"/>
      <point x="769" y="810" type="curve" smooth="yes"/>
    </contour>
    <contour>
      <point x="191" y="0" type="line"/>
      <point x="441" y="0" type="line"/>
      <point x="441" y="642" type="line"/>
      <point x="734" y="642" type="line" smooth="yes"/>
      <point x="866" y="642"/>
      <point x="955" y="594"/>
      <point x="976" y="449" type="curve"/>
      <point x="1030" y="0" type="line"/>
      <point x="1294" y="0" type="line"/>
      <point x="1226" y="462" type="line" smooth="yes"/>
      <point x="1205" y="603"/>
      <point x="1147" y="695"/>
      <point x="1001" y="722" type="curve"/>
      <point x="1001" y="723" type="line"/>
      <point x="1174" y="751"/>
      <point x="1264" y="838"/>
      <point x="1264" y="1102" type="curve" smooth="yes"/>
      <point x="1264" y="1473"/>
      <point x="1077" y="1503"/>
      <point x="701" y="1503" type="curve" smooth="yes"/>
      <point x="191" y="1503" type="line"/>
    </contour>
  </outline>
</glyph>
<glyph name="bracketleft" format="1">
  <advance width="794"/>
  <unicode hex="005B"/>
  <outline>
    <contour>
      <point x="206" y="1660" type="line"/>
      <point x="206" y="-278" type="line"/>
      <point x="715" y="-278" type="line"/>
      <point x="715" y="-115" type="line"/>
      <point x="450" y="-115" type="line"/>
      <point x="450" y="1498" type="line"/>
      <point x="715" y="1498" type="line"/>
      <point x="715" y="1660" type="line"/>
    </contour>
  </outline>
</glyph>
<glyph name="asciicircum" format="1">
  <advance width="1021"/>
  <unicode hex="005E"/>
  <outline>
    <contour>
      <point x="511" y="1500" type="curve" smooth="yes"/>
      <point x="459" y="1500"/>
      <point x="420" y="1483"/>
      <point x="397" y="1434" type="curve"/>
      <point x="50" y="732" type="line" smooth="yes"/>
      <point x="45.728" y="723.056"/>
      <point x="43.8264" y="714.485"/>
      <point x="43.8264" y="706.499" type="curve" smooth="yes"/>
      <point x="43.8264" y="674.644"/>
      <point x="74.0785" y="652.074"/>
      <point x="104.842" y="652.074" type="curve" smooth="yes"/>
      <point x="124.141" y="652.074"/>
      <point x="143.641" y="660.956"/>
      <point x="156" y="682" type="curve" smooth="yes"/>
      <point x="511" y="1288" type="line"/>
      <point x="866" y="682" type="line" smooth="yes"/>
      <point x="878.359" y="660.956"/>
      <point x="897.859" y="652.074"/>
      <point x="917.158" y="652.074" type="curve" smooth="yes"/>
      <point x="947.922" y="652.074"/>
      <point x="978.174" y="674.644"/>
      <point x="978.174" y="706.499" type="curve" smooth="yes"/>
      <point x="978.174" y="714.485"/>
      <point x="976.272" y="723.056"/>
      <point x="972" y="732" type="curve" smooth="yes"/>
      <point x="625" y="1434" type="line"/>
      <point x="602" y="1483"/>
      <point x="563" y="1500"/>
    </contour>
  </outline>
</glyph>
<glyph name="underscore" format="1">
  <advance width="855"/>
  <unicode hex="005F"/>
  <outline>
    <contour>
      <point x="6" y="-98" type="line"/>
      <point x="6" y="-241" type="line"/>
      <point x="849" y="-241" type="line"/>
      <point x="849" y="-98" type="line"/>
    </contour>
  </outline>
</glyph>
<glyph name="g" format="1">
  <advance width="1223"/>
  <unicode hex="0067"/>
  <outline>
    <contour>
      <point x="616" y="0" type="move" name="bot"/>
    </contour>
    <contour>
      <point x="598" y="1121" type="move" name="top"/>
    </contour>
    <contour>
      <point x="375.195" y="362.299" type="curve" smooth="yes"/>
      <point x="375.195" y="468.264"/>
      <point x="373" y="658.295"/>
      <point x="373" y="782" type="curve" smooth="yes"/>
      <point x="373" y="973"/>
      <point x="408" y="997"/>
      <point x="602" y="997" type="curve" smooth="yes"/>
      <point x="774" y="997"/>
      <point x="835" y="961"/>
      <point x="835" y="866" type="curve" smooth="yes"/>
      <point x="834" y="252" type="line" smooth="yes"/>
      <point x="834" y="188"/>
      <point x="712" y="173"/>
      <point x="619" y="173" type="curve" smooth="yes"/>
      <point x="390.437" y="173"/>
      <point x="374.802" y="236.54"/>
      <point x="374.802" y="320.828" type="curve" smooth="yes"/>
      <point x="374.802" y="334.187"/>
      <point x="375.195" y="348.068"/>
    </contour>
    <contour>
      <point x="133" y="650" type="curve" smooth="yes"/>
      <point x="133" y="502" type="line" smooth="yes"/>
      <point x="133" y="162"/>
      <point x="163" y="26"/>
      <point x="550" y="26" type="curve" smooth="yes"/>
      <point x="708" y="26"/>
      <point x="796" y="66"/>
      <point x="835" y="157" type="curve"/>
      <point x="835" y="-93" type="line"/>
      <point x="830" y="-184"/>
      <point x="799" y="-240"/>
      <point x="569" y="-240" type="curve" smooth="yes"/>
      <point x="461" y="-240"/>
      <point x="315" y="-225"/>
      <point x="242" y="-205" type="curve"/>
      <point x="223" y="-360" type="line"/>
      <point x="308" y="-388"/>
      <point x="470" y="-406"/>
      <point x="607" y="-406" type="curve" smooth="yes"/>
      <point x="993" y="-406"/>
      <point x="1076" y="-277"/>
      <point x="1076" y="103" type="curve" smooth="yes"/>
      <point x="1077" y="1121" type="line"/>
      <point x="858" y="1121" type="line"/>
      <point x="837" y="1000" type="line"/>
      <point x="786" y="1105"/>
      <point x="680" y="1141"/>
      <point x="510" y="1142" type="curve" smooth="yes"/>
      <point x="182" y="1142"/>
      <point x="133" y="1019"/>
    </contour>
  </outline>
</glyph>
<glyph name="h" format="1">
  <advance width="1238"/>
  <unicode hex="0068"/>
  <outline>
    <contour>
      <point x="367" y="1313" type="move" name="mid"/>
    </contour>
    <contour>
      <point x="617" y="561" type="move" name="center"/>
    </contour>
    <contour>
      <point x="619" y="0" type="move" name="bot"/>
    </contour>
    <contour>
      <point x="724" y="1330" type="move" name="top"/>
    </contour>
    <contour>
      <point x="162" y="1539" type="line"/>
      <point x="162" y="0" type="line"/>
      <point x="405" y="0" type="line"/>
      <point x="405" y="902" type="line" smooth="yes"/>
      <point x="405" y="966"/>
      <point x="530" y="994"/>
      <point x="618" y="994" type="curve" smooth="yes"/>
      <point x="833" y="994"/>
      <point x="847" y="968"/>
      <point x="847" y="709" type="curve" smooth="yes"/>
      <point x="847" y="0" type="line"/>
      <point x="1089" y="0" type="line"/>
      <point x="1090" y="751" type="line" smooth="yes"/>
      <point x="1090" y="989"/>
      <point x="1049" y="1142"/>
      <point x="705" y="1142" type="curve" smooth="yes"/>
      <point x="558" y="1142"/>
      <point x="454" y="1104"/>
      <point x="405" y="1028" type="curve"/>
      <point x="405" y="1539" type="line"/>
    </contour>
  </outline>
</glyph>
<glyph name="l" format="1">
  <advance width="564"/>
  <unicode hex="006C"/>
  <outline>
    <contour>
      <point x="293" y="0" type="move" name="bottom"/>
    </contour>
    <contour>
      <point x="296" y="1084" type="move" name="mid"/>
    </contour>
    <contour>
      <point x="294" y="0" type="move" name="bot"/>
    </contour>
    <contour>
      <point x="324" y="1121" type="move" name="caron.alt"/>
    </contour>
    <contour>
      <point x="296" y="1503" type="move" name="top"/>
    </contour>
    <contour>
      <point x="174" y="1539" type="line"/>
      <point x="174" y="0" type="line"/>
      <point x="416" y="0" type="line"/>
      <point x="416" y="1539" type="line"/>
    </contour>
  </outline>
</glyph>
<glyph name="m" format="1">
  <advance width="1832"/>
  <unicode hex="006D"/>
  <outline>
    <contour>
      <point x="920" y="0" type="move" name="bot"/>
    </contour>
    <contour>
      <point x="920" y="1121" type="move" name="top"/>
    </contour>
    <contour>
      <point x="999" y="998" type="curve"/>
      <point x="954" y="1107"/>
      <point x="862" y="1142"/>
      <point x="714" y="1142" type="curve" smooth="yes"/>
      <point x="568" y="1142"/>
      <point x="460" y="1112"/>
      <point x="403" y="1002" type="curve"/>
      <point x="382" y="1121" type="line"/>
      <point x="162" y="1121" type="line"/>
      <point x="162" y="0" type="line"/>
      <point x="403" y="0" type="line"/>
      <point x="404" y="922" type="line" smooth="yes"/>
      <point x="404" y="986"/>
      <point x="523" y="1004"/>
      <point x="600" y="1004" type="curve" smooth="yes"/>
      <point x="792" y="1004"/>
      <point x="806" y="956"/>
      <point x="806" y="775" type="curve" smooth="yes"/>
      <point x="806" y="0" type="line"/>
      <point x="1047" y="0" type="line"/>
      <point x="1046" y="810" type="line" smooth="yes"/>
      <point x="1046" y="851"/>
      <point x="1046" y="887"/>
      <point x="1054" y="917" type="curve" smooth="yes"/>
      <point x="1073" y="976"/>
      <point x="1137" y="1004"/>
      <point x="1275" y="1004" type="curve" smooth="yes"/>
      <point x="1433" y="1004"/>
      <point x="1444" y="923"/>
      <point x="1444" y="719" type="curve" smooth="yes"/>
      <point x="1444" y="0" type="line"/>
      <point x="1685" y="0" type="line"/>
      <point x="1685" y="706" type="line" smooth="yes"/>
      <point x="1685" y="1047"/>
      <point x="1617" y="1142"/>
      <point x="1319" y="1142" type="curve" smooth="yes"/>
      <point x="1159" y="1142"/>
      <point x="1054" y="1100"/>
    </contour>
  </outline>
</glyph>
<glyph name="n" format="1">
  <advance width="1230"/>
  <unicode hex="006E"/>
  <outline>
    <contour>
      <point x="618" y="0" type="move" name="bot"/>
    </contour>
    <contour>
      <point x="617" y="1121" type="move" name="top"/>
    </contour>
    <contour>
      <point x="403" y="1000" type="curve"/>
      <point x="381" y="1121" type="line"/>
      <point x="162" y="1121" type="line"/>
      <point x="162" y="0" type="line"/>
      <point x="404" y="0" type="line"/>
      <point x="404" y="819" type="line" smooth="yes"/>
      <point x="404" y="946"/>
      <point x="457" y="994"/>
      <point x="665" y="994" type="curve" smooth="yes"/>
      <point x="811" y="994"/>
      <point x="841" y="928"/>
      <point x="841" y="769" type="curve" smooth="yes"/>
      <point x="841" y="0" type="line"/>
      <point x="1083" y="0" type="line"/>
      <point x="1083" y="751" type="line" smooth="yes"/>
      <point x="1083" y="995"/>
      <point x="1017" y="1141"/>
      <point x="731" y="1142" type="curve" smooth="yes"/>
      <point x="585" y="1142"/>
      <point x="442" y="1113"/>
    </contour>
  </outline>
</glyph>
<glyph name="o" format="1">
  <advance width="1242"/>
  <unicode hex="006F"/>
  <outline>
    <contour>
      <point x="621" y="0" type="move" name="bot"/>
    </contour>
    <contour>
      <point x="705" y="0" type="move" name="ogonek"/>
    </contour>
    <contour>
      <point x="622" y="1121" type="move" name="top"/>
    </contour>
    <contour>
      <point x="622" y="131" type="curve" smooth="yes"/>
      <point x="466" y="131"/>
      <point x="388" y="148"/>
      <point x="388" y="212" type="curve" smooth="yes"/>
      <point x="387" y="911" type="line" smooth="yes"/>
      <point x="387" y="993"/>
      <point x="516" y="993"/>
      <point x="621" y="993" type="curve" smooth="yes"/>
      <point x="726" y="993"/>
      <point x="855" y="993"/>
      <point x="855" y="911" type="curve" smooth="yes"/>
      <point x="855" y="212" type="line" smooth="yes"/>
      <point x="855" y="146"/>
      <point x="778" y="131"/>
    </contour>
    <contour>
      <point x="136" y="629" type="curve" smooth="yes"/>
      <point x="136" y="532" type="line" smooth="yes"/>
      <point x="136" y="87"/>
      <point x="200" y="-20"/>
      <point x="621" y="-20" type="curve" smooth="yes"/>
      <point x="1041" y="-20"/>
      <point x="1106" y="85"/>
      <point x="1106" y="532" type="curve" smooth="yes"/>
      <point x="1106" y="630" type="line" smooth="yes"/>
      <point x="1106" y="1065"/>
      <point x="1019" y="1142"/>
      <point x="622" y="1142" type="curve" smooth="yes"/>
      <point x="227" y="1142"/>
      <point x="136" y="1064"/>
    </contour>
  </outline>
</glyph>
<glyph name="q" format="1">
  <advance width="1249"/>
  <unicode hex="0071"/>
  <outline>
    <contour>
      <point x="610" y="127" type="curve" smooth="yes"/>
      <point x="393" y="127"/>
      <point x="378" y="157"/>
      <point x="378" y="389" type="curve" smooth="yes"/>
      <point x="378" y="785" type="line" smooth="yes"/>
      <point x="378" y="798.456"/>
      <point x="377.755" y="811.695"/>
      <point x="377.755" y="824.576" type="curve" smooth="yes"/>
      <point x="377.755" y="918.907"/>
      <point x="390.915" y="994"/>
      <point x="610" y="994" type="curve" smooth="yes"/>
      <point x="833" y="994"/>
      <point x="849" y="965"/>
      <point x="849" y="742" type="curve" smooth="yes"/>
      <point x="849" y="419" type="line" smooth="yes"/>
      <point x="849" y="183"/>
      <point x="802" y="127"/>
    </contour>
    <contour>
      <point x="136" y="632" type="curve" smooth="yes"/>
      <point x="136" y="520" type="line" smooth="yes"/>
      <point x="136" y="135"/>
      <point x="190" y="-20"/>
      <point x="541" y="-20" type="curve" smooth="yes"/>
      <point x="710" y="-20"/>
      <point x="816" y="24"/>
      <point x="845" y="101" type="curve"/>
      <point x="845" y="-377" type="line"/>
      <point x="1087" y="-390" type="line"/>
      <point x="1087" y="1121" type="line"/>
      <point x="871" y="1121" type="line"/>
      <point x="850" y="1001" type="line"/>
      <point x="806" y="1100"/>
      <point x="697" y="1142"/>
      <point x="525" y="1142" type="curve" smooth="yes"/>
      <point x="191" y="1142"/>
      <point x="136" y="992"/>
    </contour>
  </outline>
</glyph>
<glyph name="t" format="1">
  <advance width="857"/>
  <unicode hex="0074"/>
  <outline>
    <contour>
      <point x="412" y="681" type="move" name="mid"/>
    </contour>
    <contour>
      <point x="477" y="0" type="move" name="bot"/>
    </contour>
    <contour>
      <point x="356" y="1262" type="move" name="caron.alt"/>
    </contour>
    <contour>
      <point x="391" y="1291" type="move" name="top"/>
    </contour>
    <contour>
      <point x="265" y="254" type="line" smooth="yes"/>
      <point x="265" y="39.2273"/>
      <point x="374.517" y="-15.0851"/>
      <point x="566.582" y="-15.0851" type="curve" smooth="yes"/>
      <point x="630.244" y="-15.0851"/>
      <point x="697.787" y="-7.5983"/>
      <point x="760" y="-1" type="curve"/>
      <point x="763" y="150" type="line"/>
      <point x="715.738" y="144.804"/>
      <point x="676.129" y="141.812"/>
      <point x="643.281" y="141.812" type="curve" smooth="yes"/>
      <point x="543.378" y="141.812"/>
      <point x="506" y="169.487"/>
      <point x="506" y="247" type="curve" smooth="yes"/>
      <point x="506" y="999" type="line"/>
      <point x="720" y="999" type="line"/>
      <point x="720" y="1121" type="line"/>
      <point x="506" y="1121" type="line"/>
      <point x="506" y="1463" type="line"/>
      <point x="265" y="1463" type="line"/>
      <point x="265" y="1121" type="line"/>
      <point x="99" y="1121" type="line"/>
      <point x="99" y="999" type="line"/>
      <point x="265" y="999" type="line"/>
    </contour>
  </outline>
</glyph>
<glyph name="x" format="1">
  <advance width="1087"/>
  <unicode hex="0078"/>
  <outline>
    <contour>
      <point x="772" y="0" type="line"/>
      <point x="1022" y="0" type="line"/>
      <point x="669" y="565" type="line"/>
      <point x="1013" y="1121" type="line"/>
      <point x="795" y="1121" type="line"/>
      <point x="558" y="743" type="line"/>
      <point x="322" y="1121" type="line"/>
      <point x="72" y="1121" type="line"/>
      <point x="415" y="572" type="line"/>
      <point x="64" y="0" type="line"/>
      <point x="284" y="0" type="line"/>
      <point x="528" y="391" type="line"/>
    </contour>
  </outline>
</glyph>
<glyph name="asciitilde" format="1">
  <advance width="1154"/>
  <unicode hex="007E"/>
  <outline>
    <contour>
      <point x="319.704" y="786.651" type="curve" smooth="yes"/>
      <point x="481.939" y="786.651"/>
      <point x="658.313" y="611.377"/>
      <point x="843.288" y="611.377" type="curve" smooth="yes"/>
      <point x="980.187" y="611.377"/>
      <point x="1039.21" y="720.828"/>
      <point x="1067" y="901" type="curve"/>
      <point x="983" y="939" type="line"/>
      <point x="944.035" y="850.905"/>
      <point x="920.855" y="804.426"/>
      <point x="847.82" y="804.426" type="curve" smooth="yes"/>
      <point x="834.634" y="804.426"/>
      <point x="819.823" y="805.941"/>
      <point x="803" y="809" type="curve" smooth="yes"/>
      <point x="688.588" y="830.394"/>
      <point x="533.511" y="969.459"/>
      <point x="368.35" y="969.459" type="curve" smooth="yes"/>
      <point x="355.953" y="969.459"/>
      <point x="343.498" y="968.676"/>
      <point x="331" y="967" type="curve" smooth="yes"/>
      <point x="231" y="954"/>
      <point x="135" y="872"/>
      <point x="103" y="706" type="curve"/>
      <point x="179" y="660" type="line"/>
      <point x="207.773" y="750.031"/>
      <point x="247.744" y="786.651"/>
    </contour>
  </outline>
</glyph>
<glyph name="sterling" format="1">
  <advance width="1523"/>
  <unicode hex="00A3"/>
  <outline>
    <contour>
      <point x="164" y="0" type="line"/>
      <point x="318.496" y="0"/>
      <point x="419.018" y="33.664"/>
      <point x="449" y="138" type="curve"/>
      <point x="482" y="14"/>
      <point x="653" y="0"/>
      <point x="891" y="0" type="curve" smooth="yes"/>
      <point x="1200" y="0"/>
      <point x="1337" y="36"/>
      <point x="1345" y="216" type="curve" smooth="yes"/>
      <point x="1356" y="452" type="line"/>
      <point x="1146" y="467" type="line"/>
      <point x="1137" y="242" type="line" smooth="yes"/>
      <point x="1134" y="181"/>
      <point x="1020" y="174"/>
      <point x="883" y="174" type="curve" smooth="yes"/>
      <point x="631" y="174"/>
      <point x="544" y="194"/>
      <point x="544" y="250" type="curve" smooth="yes"/>
      <point x="544" y="703" type="line"/>
      <point x="1032" y="703" type="line"/>
      <point x="1032" y="852" type="line"/>
      <point x="544" y="852" type="line"/>
      <point x="544" y="1242" type="line" smooth="yes"/>
      <point x="544" y="1365"/>
      <point x="568" y="1391"/>
      <point x="837" y="1391" type="curve" smooth="yes"/>
      <point x="1038" y="1391"/>
      <point x="1091" y="1387"/>
      <point x="1091" y="1298" type="curve" smooth="yes"/>
      <point x="1090" y="1066" type="line"/>
      <point x="1318" y="1076" type="line"/>
      <point x="1317" y="1324" type="line" smooth="yes"/>
      <point x="1316" y="1489"/>
      <point x="1195" y="1553"/>
      <point x="860" y="1553" type="curve" smooth="yes"/>
      <point x="484" y="1553"/>
      <point x="318" y="1517"/>
      <point x="318" y="1193" type="curve" smooth="yes"/>
      <point x="318" y="853" type="line"/>
      <point x="166" y="853" type="line"/>
      <point x="166" y="704" type="line"/>
      <point x="318" y="704" type="line"/>
      <point x="318" y="301" type="line" smooth="yes"/>
      <point x="318" y="207"/>
      <point x="289" y="174"/>
      <point x="164" y="173" type="curve"/>
    </contour>
  </outline>
</glyph>
<glyph name="yen" format="1">
  <advance width="1358"/>
  <unicode hex="00A5"/>
  <outline>
    <contour>
      <point x="549" y="0" type="line"/>
      <point x="799" y="0" type="line"/>
      <point x="799" y="266" type="line"/>
      <point x="1084" y="266" type="line"/>
      <point x="1084" y="358" type="line"/>
      <point x="799" y="358" type="line"/>
      <point x="805" y="526" type="line"/>
      <point x="1125" y="526" type="line"/>
      <point x="1125" y="643" type="line"/>
      <point x="858" y="643" type="line"/>
      <point x="1249" y="1503" type="line"/>
      <point x="994" y="1503" type="line"/>
      <point x="682" y="738" type="line"/>
      <point x="372" y="1503" type="line"/>
      <point x="110" y="1503" type="line"/>
      <point x="491" y="643" type="line"/>
      <point x="232" y="643" type="line"/>
      <point x="232" y="526" type="line"/>
      <point x="543" y="526" type="line"/>
      <point x="549" y="358" type="line"/>
      <point x="273" y="358" type="line"/>
      <point x="273" y="266" type="line"/>
      <point x="549" y="266" type="line"/>
    </contour>
  </outline>
</glyph>
<glyph name="section" format="1">
  <advance width="1161"/>
  <unicode hex="00A7"/>
  <outline>
    <contour>
      <point x="747" y="485" type="curve"/>
      <point x="653" y="500"/>
      <point x="581" y="508"/>
      <point x="531" y="517" type="curve" smooth="yes"/>
      <point x="417" y="538"/>
      <point x="397" y="563"/>
      <point x="397" y="689" type="curve" smooth="yes"/>
      <point x="397" y="732"/>
      <point x="405" y="807"/>
      <point x="419" y="860" type="curve"/>
      <point x="445" y="852"/>
      <point x="547" y="844"/>
      <point x="691" y="800" type="curve" smooth="yes"/>
      <point x="750" y="781"/>
      <point x="775" y="750"/>
      <point x="775" y="637" type="curve" smooth="yes"/>
      <point x="775" y="572"/>
      <point x="766" y="499"/>
    </contour>
    <contour>
      <point x="576" y="-211" type="curve" smooth="yes"/>
      <point x="862" y="-211"/>
      <point x="996" y="-153"/>
      <point x="996" y="137" type="curve" smooth="yes"/>
      <point x="996" y="279"/>
      <point x="953" y="375"/>
      <point x="885" y="430" type="curve"/>
      <point x="957" y="474"/>
      <point x="1000" y="558"/>
      <point x="1000" y="676" type="curve" smooth="yes"/>
      <point x="1000" y="909"/>
      <point x="878" y="949"/>
      <point x="670" y="983" type="curve" smooth="yes"/>
      <point x="377" y="1033"/>
      <point x="398" y="1033"/>
      <point x="396" y="1191" type="curve" smooth="yes"/>
      <point x="396" y="1279"/>
      <point x="408" y="1354"/>
      <point x="437" y="1377" type="curve" smooth="yes"/>
      <point x="467" y="1400"/>
      <point x="518" y="1401"/>
      <point x="588" y="1401" type="curve" smooth="yes"/>
      <point x="670" y="1401"/>
      <point x="723" y="1395"/>
      <point x="751" y="1368" type="curve" smooth="yes"/>
      <point x="779" y="1340"/>
      <point x="787" y="1269"/>
      <point x="787" y="1186" type="curve"/>
      <point x="1003" y="1186" type="line"/>
      <point x="1003" y="1247"/>
      <point x="999" y="1298"/>
      <point x="988" y="1341" type="curve" smooth="yes"/>
      <point x="953" y="1509"/>
      <point x="816" y="1549"/>
      <point x="591" y="1549" type="curve" smooth="yes"/>
      <point x="301" y="1549"/>
      <point x="176" y="1487"/>
      <point x="176" y="1205" type="curve" smooth="yes"/>
      <point x="176" y="1067"/>
      <point x="213" y="973"/>
      <point x="280" y="917" type="curve"/>
      <point x="223" y="872"/>
      <point x="173" y="793"/>
      <point x="173" y="682" type="curve" smooth="yes"/>
      <point x="173" y="408"/>
      <point x="278" y="367"/>
      <point x="620" y="330" type="curve" smooth="yes"/>
      <point x="716" y="319"/>
      <point x="776" y="267"/>
      <point x="776" y="150" type="curve" smooth="yes"/>
      <point x="776" y="71"/>
      <point x="769" y="-5"/>
      <point x="745" y="-31" type="curve" smooth="yes"/>
      <point x="720" y="-57"/>
      <point x="673" y="-63"/>
      <point x="599" y="-63" type="curve" smooth="yes"/>
      <point x="512" y="-63"/>
      <point x="454" y="-62"/>
      <point x="422" y="-37" type="curve" smooth="yes"/>
      <point x="389" y="-12"/>
      <point x="379" y="59"/>
      <point x="379" y="153" type="curve"/>
      <point x="161" y="153" type="line"/>
      <point x="161" y="102"/>
      <point x="165" y="57"/>
      <point x="172" y="19" type="curve" smooth="yes"/>
      <point x="203" y="-170"/>
      <point x="343" y="-211"/>
    </contour>
  </outline>
</glyph>
<glyph name="uni00AD" format="1">
  <advance width="1081"/>
  <unicode hex="00AD"/>
  <outline>
    <contour>
      <point x="146" y="550" type="line"/>
      <point x="938" y="550" type="line"/>
      <point x="938" y="748" type="line"/>
      <point x="146" y="748" type="line"/>
    </contour>
  </outline>
</glyph>
<glyph name="degree" format="1">
  <advance width="897"/>
  <unicode hex="00B0"/>
  <outline>
    <contour>
      <point x="450" y="1049" type="curve" smooth="yes"/>
      <point x="639" y="1049"/>
      <point x="758" y="1160"/>
      <point x="758" y="1328" type="curve" smooth="yes"/>
      <point x="758" y="1495"/>
      <point x="639" y="1606"/>
      <point x="450" y="1606" type="curve" smooth="yes"/>
      <point x="260" y="1606"/>
      <point x="142" y="1495"/>
      <point x="142" y="1328" type="curve" smooth="yes"/>
      <point x="142" y="1160"/>
      <point x="260" y="1049"/>
    </contour>
    <contour>
      <point x="450" y="1163" type="curve" smooth="yes"/>
      <point x="355" y="1163"/>
      <point x="295" y="1227"/>
      <point x="295" y="1327" type="curve" smooth="yes"/>
      <point x="295" y="1426"/>
      <point x="355" y="1490"/>
      <point x="450" y="1490" type="curve" smooth="yes"/>
      <point x="546" y="1490"/>
      <point x="606" y="1426"/>
      <point x="606" y="1327" type="curve" smooth="yes"/>
      <point x="606" y="1227"/>
      <point x="546" y="1163"/>
    </contour>
  </outline>
</glyph>
<glyph name="threesuperior" format="1">
  <advance width="1259"/>
  <unicode hex="00B3"/>
  <outline>
    <contour>
      <point x="646" y="441" type="curve" smooth="yes"/>
      <point x="920" y="441"/>
      <point x="1043" y="511"/>
      <point x="1043" y="757" type="curve" smooth="yes"/>
      <point x="1043" y="865"/>
      <point x="1032" y="960"/>
      <point x="938" y="987" type="curve"/>
      <point x="1030" y="1014"/>
      <point x="1041" y="1091"/>
      <point x="1041" y="1199" type="curve" smooth="yes"/>
      <point x="1041" y="1446"/>
      <point x="962" y="1523"/>
      <point x="645" y="1523" type="curve" smooth="yes"/>
      <point x="312" y="1523"/>
      <point x="230" y="1440"/>
      <point x="230" y="1177" type="curve" smooth="yes"/>
      <point x="230" y="1148" type="line"/>
      <point x="447" y="1148" type="line"/>
      <point x="447" y="1214" type="line"/>
      <point x="451" y="1362"/>
      <point x="483" y="1381"/>
      <point x="645" y="1381" type="curve" smooth="yes"/>
      <point x="809" y="1381"/>
      <point x="834" y="1352"/>
      <point x="834" y="1234" type="curve" smooth="yes"/>
      <point x="834" y="1203.19"/>
      <point x="834.73" y="1175.74"/>
      <point x="834.73" y="1152.08" type="curve" smooth="yes"/>
      <point x="834.73" y="1088.21"/>
      <point x="829.405" y="1052"/>
      <point x="790" y="1052" type="curve" smooth="yes"/>
      <point x="536" y="1052" type="line"/>
      <point x="536" y="930" type="line"/>
      <point x="790" y="930" type="line" smooth="yes"/>
      <point x="831.143" y="930"/>
      <point x="834.082" y="871.959"/>
      <point x="834.082" y="795.551" type="curve" smooth="yes"/>
      <point x="834.082" y="782.816"/>
      <point x="834" y="769.571"/>
      <point x="834" y="756" type="curve" smooth="yes"/>
      <point x="834" y="634"/>
      <point x="805" y="591"/>
      <point x="659" y="591" type="curve" smooth="yes"/>
      <point x="473.815" y="591"/>
      <point x="445.523" y="628.723"/>
      <point x="445.523" y="739.097" type="curve" smooth="yes"/>
      <point x="445.523" y="747.927"/>
      <point x="445.704" y="757.222"/>
      <point x="446" y="767" type="curve" smooth="yes"/>
      <point x="447" y="830" type="line"/>
      <point x="230" y="830" type="line"/>
      <point x="230" y="789" type="line" smooth="yes"/>
      <point x="230" y="539"/>
      <point x="318" y="441"/>
    </contour>
  </outline>
</glyph>
<glyph name="cedilla" format="1">
  <advance width="764"/>
  <unicode hex="00B8"/>
  <outline>
    <contour>
      <point x="407" y="0" type="move" name="_bot"/>
    </contour>
    <contour>
      <point x="357" y="11" type="line"/>
      <point x="319" y="-134" type="line" smooth="yes"/>
      <point x="297" y="-216"/>
      <point x="285" y="-264"/>
      <point x="282" y="-280" type="curve"/>
      <point x="374" y="-280"/>
      <point x="420" y="-309"/>
      <point x="420" y="-366" type="curve" smooth="yes"/>
      <point x="420" y="-405"/>
      <point x="396" y="-419"/>
      <point x="362" y="-419" type="curve" smooth="yes"/>
      <point x="303" y="-419"/>
      <point x="218" y="-377"/>
      <point x="200" y="-369" type="curve"/>
      <point x="152" y="-460" type="line"/>
      <point x="215" y="-515"/>
      <point x="307" y="-543"/>
      <point x="392" y="-543" type="curve" smooth="yes"/>
      <point x="520" y="-543"/>
      <point x="637" y="-481"/>
      <point x="637" y="-354" type="curve" smooth="yes"/>
      <point x="637" y="-203"/>
      <point x="550" y="-175"/>
      <point x="419" y="-157" type="curve"/>
      <point x="468" y="11" type="line"/>
    </contour>
  </outline>
</glyph>
<glyph name="ordmasculine" format="1">
  <advance width="1030"/>
  <unicode hex="00BA"/>
  <outline>
    <contour>
      <point x="341" y="821" type="curve" smooth="yes"/>
      <point x="341" y="1345" type="line" smooth="yes"/>
      <point x="341" y="1400"/>
      <point x="428" y="1409"/>
      <point x="515" y="1409" type="curve" smooth="yes"/>
      <point x="602" y="1409"/>
      <point x="688" y="1400"/>
      <point x="688" y="1345" type="curve" smooth="yes"/>
      <point x="688" y="821" type="line" smooth="yes"/>
      <point x="688" y="773"/>
      <point x="631" y="761"/>
      <point x="515" y="761" type="curve" smooth="yes"/>
      <point x="399" y="761"/>
      <point x="341" y="773"/>
    </contour>
    <contour>
      <point x="514" y="644" type="curve" smooth="yes"/>
      <point x="818" y="644"/>
      <point x="880" y="721"/>
      <point x="880" y="1032" type="curve" smooth="yes"/>
      <point x="880" y="1116" type="line" smooth="yes"/>
      <point x="880.008" y="1118.63"/>
      <point x="880.011" y="1121.25"/>
      <point x="880.011" y="1123.86" type="curve" smooth="yes"/>
      <point x="880.011" y="1462.93"/>
      <point x="814.7" y="1523"/>
      <point x="515" y="1523" type="curve" smooth="yes"/>
      <point x="219.112" y="1523"/>
      <point x="148.989" y="1462.86"/>
      <point x="148.989" y="1123.31" type="curve" smooth="yes"/>
      <point x="148.989" y="1120.89"/>
      <point x="148.993" y="1118.45"/>
      <point x="149" y="1116" type="curve" smooth="yes"/>
      <point x="149" y="1032" type="line" smooth="yes"/>
      <point x="149" y="721"/>
      <point x="211" y="644"/>
    </contour>
  </outline>
</glyph>
<glyph name="guillemotright" format="1">
  <advance width="1705"/>
  <unicode hex="00BB"/>
  <outline>
    <contour>
      <point x="837" y="245" type="curve" smooth="yes"/>
      <point x="853" y="245"/>
      <point x="872" y="251"/>
      <point x="890" y="265" type="curve" smooth="yes"/>
      <point x="1395" y="655" type="line" smooth="yes"/>
      <point x="1445" y="693"/>
      <point x="1468" y="737"/>
      <point x="1468" y="780" type="curve" smooth="yes"/>
      <point x="1468" y="828"/>
      <point x="1443" y="870"/>
      <point x="1395" y="906" type="curve" smooth="yes"/>
      <point x="890" y="1296" type="line" smooth="yes"/>
      <point x="872.934" y="1309"/>
      <point x="859.171" y="1317.38"/>
      <point x="845.489" y="1317.38" type="curve" smooth="yes"/>
      <point x="842.335" y="1317.38"/>
      <point x="839.185" y="1316.94"/>
      <point x="836" y="1316" type="curve"/>
      <point x="833.366" y="1316.34"/>
      <point x="830.783" y="1316.5"/>
      <point x="828.255" y="1316.5" type="curve" smooth="yes"/>
      <point x="793.346" y="1316.5"/>
      <point x="769" y="1285.16"/>
      <point x="769" y="1246" type="curve" smooth="yes"/>
      <point x="769" y="1232"/>
      <point x="774" y="1209"/>
      <point x="794" y="1190" type="curve" smooth="yes"/>
      <point x="1198" y="781" type="line"/>
      <point x="794" y="371" type="line" smooth="yes"/>
      <point x="777" y="354"/>
      <point x="769" y="333"/>
      <point x="769" y="315" type="curve" smooth="yes"/>
      <point x="769" y="278"/>
      <point x="798" y="245"/>
    </contour>
    <contour>
      <point x="255" y="245" type="curve" smooth="yes"/>
      <point x="272" y="245"/>
      <point x="290" y="251"/>
      <point x="309" y="265" type="curve" smooth="yes"/>
      <point x="814" y="655" type="line" smooth="yes"/>
      <point x="864" y="693"/>
      <point x="887" y="737"/>
      <point x="887" y="780" type="curve" smooth="yes"/>
      <point x="887" y="828"/>
      <point x="862" y="870"/>
      <point x="814" y="906" type="curve" smooth="yes"/>
      <point x="309" y="1296" type="line" smooth="yes"/>
      <point x="291.934" y="1309"/>
      <point x="277.51" y="1317.38"/>
      <point x="264.118" y="1317.38" type="curve" smooth="yes"/>
      <point x="261.03" y="1317.38"/>
      <point x="257.998" y="1316.94"/>
      <point x="255" y="1316" type="curve"/>
      <point x="252.366" y="1316.34"/>
      <point x="249.783" y="1316.5"/>
      <point x="247.255" y="1316.5" type="curve" smooth="yes"/>
      <point x="212.346" y="1316.5"/>
      <point x="188" y="1285.16"/>
      <point x="188" y="1246" type="curve" smooth="yes"/>
      <point x="188" y="1232"/>
      <point x="193" y="1209"/>
      <point x="212" y="1190" type="curve" smooth="yes"/>
      <point x="617" y="781" type="line"/>
      <point x="212" y="371" type="line" smooth="yes"/>
      <point x="195" y="354"/>
      <point x="188" y="333"/>
      <point x="188" y="315" type="curve" smooth="yes"/>
      <point x="188" y="278"/>
      <point x="217" y="245"/>
    </contour>
  </outline>
</glyph>
<glyph name="threequarters" format="1">
  <advance width="2654"/>
  <unicode hex="00BE"/>
  <outline>
    <contour>
      <point x="584" y="431" type="curve" smooth="yes"/>
      <point x="858" y="431"/>
      <point x="980" y="501"/>
      <point x="980" y="747" type="curve" smooth="yes"/>
      <point x="980" y="855"/>
      <point x="970" y="950"/>
      <point x="876" y="977" type="curve"/>
      <point x="967" y="1004"/>
      <point x="978" y="1081"/>
      <point x="978" y="1189" type="curve" smooth="yes"/>
      <point x="978" y="1436"/>
      <point x="899" y="1513"/>
      <point x="583" y="1513" type="curve" smooth="yes"/>
      <point x="250" y="1513"/>
      <point x="168" y="1430"/>
      <point x="168" y="1167" type="curve" smooth="yes"/>
      <point x="168" y="1138" type="line"/>
      <point x="384" y="1138" type="line"/>
      <point x="385" y="1205" type="line" smooth="yes"/>
      <point x="388" y="1353"/>
      <point x="421" y="1371"/>
      <point x="583" y="1371" type="curve" smooth="yes"/>
      <point x="746" y="1371"/>
      <point x="772" y="1342"/>
      <point x="772" y="1224" type="curve" smooth="yes"/>
      <point x="772" y="1195.35"/>
      <point x="772.578" y="1169.53"/>
      <point x="772.578" y="1146.95" type="curve" smooth="yes"/>
      <point x="772.578" y="1080.45"/>
      <point x="767.563" y="1042"/>
      <point x="728" y="1042" type="curve" smooth="yes"/>
      <point x="474" y="1042" type="line"/>
      <point x="474" y="921" type="line"/>
      <point x="728" y="921" type="line" smooth="yes"/>
      <point x="769.679" y="921"/>
      <point x="772.038" y="858.088"/>
      <point x="772.038" y="778.291" type="curve" smooth="yes"/>
      <point x="772.038" y="768.104"/>
      <point x="772" y="757.642"/>
      <point x="772" y="747" type="curve" smooth="yes"/>
      <point x="772" y="624"/>
      <point x="742" y="581"/>
      <point x="596" y="581" type="curve" smooth="yes"/>
      <point x="408.996" y="581"/>
      <point x="382.711" y="619.855"/>
      <point x="382.711" y="734.078" type="curve" smooth="yes"/>
      <point x="382.711" y="741.405"/>
      <point x="382.819" y="749.043"/>
      <point x="383" y="757" type="curve" smooth="yes"/>
      <point x="384" y="821" type="line"/>
      <point x="168" y="821" type="line"/>
      <point x="168" y="779" type="line" smooth="yes"/>
      <point x="168" y="529"/>
      <point x="255" y="431"/>
    </contour>
    <contour>
      <point x="1010" y="0" type="line"/>
      <point x="1172" y="0" type="line"/>
      <point x="1833" y="1534" type="line"/>
      <point x="1574" y="1534" type="line"/>
    </contour>
    <contour>
      <point x="2277" y="0" type="line"/>
      <point x="2485" y="0" type="line"/>
      <point x="2485" y="683" type="line"/>
      <point x="2277" y="683" type="line"/>
      <point x="2277" y="401" type="line"/>
      <point x="1926" y="401" type="line"/>
      <point x="1926" y="418" type="line"/>
      <point x="2245" y="1095" type="line"/>
      <point x="2045" y="1095" type="line"/>
      <point x="1699" y="407" type="line"/>
      <point x="1699" y="240" type="line"/>
      <point x="2277" y="240" type="line"/>
    </contour>
  </outline>
</glyph>
<glyph name="AE" format="1">
  <advance width="2055"/>
  <unicode hex="00C6"/>
  <outline>
    <contour>
      <point x="1153" y="1503" type="move" name="top"/>
    </contour>
    <contour>
      <point x="641" y="530" type="line"/>
      <point x="1050" y="1325" type="line"/>
      <point x="1050" y="530" type="line"/>
    </contour>
    <contour>
      <point x="87" y="0" type="line"/>
      <point x="370" y="0" type="line"/>
      <point x="575" y="377" type="line"/>
      <point x="1050" y="377" type="line"/>
      <point x="1050" y="0" type="line"/>
      <point x="1931" y="0" type="line"/>
      <point x="1931" y="176" type="line"/>
      <point x="1306" y="176" type="line"/>
      <point x="1306" y="699" type="line"/>
      <point x="1814" y="699" type="line"/>
      <point x="1814" y="876" type="line"/>
      <point x="1306" y="876" type="line"/>
      <point x="1306" y="1327" type="line"/>
      <point x="1914" y="1327" type="line"/>
      <point x="1914" y="1503" type="line"/>
      <point x="902" y="1503" type="line"/>
    </contour>
  </outline>
</glyph>
<glyph name="multiply" format="1">
  <advance width="1025"/>
  <unicode hex="00D7"/>
  <outline>
    <contour>
      <point x="281" y="254" type="curve"/>
      <point x="511" y="507" type="line"/>
      <point x="742" y="254" type="line"/>
      <point x="888" y="415" type="line"/>
      <point x="660" y="667" type="line"/>
      <point x="888" y="920" type="line"/>
      <point x="742" y="1081" type="line"/>
      <point x="511" y="828" type="line"/>
      <point x="281" y="1081" type="line"/>
      <point x="223" y="1017"/>
      <point x="159" y="946"/>
      <point x="135" y="920" type="curve"/>
      <point x="319" y="715"/>
      <point x="356" y="675"/>
      <point x="363" y="667" type="curve"/>
      <point x="135" y="415" type="line"/>
      <point x="193" y="350"/>
      <point x="258" y="279"/>
    </contour>
  </outline>
</glyph>
<glyph name="germandbls" format="1">
  <advance width="1299"/>
  <unicode hex="00DF"/>
  <outline>
    <contour>
      <point x="166" y="-187" type="line"/>
      <point x="400" y="-173" type="line"/>
      <point x="400" y="1115" type="line" smooth="yes"/>
      <point x="399.991" y="1116.93"/>
      <point x="399.986" y="1118.85"/>
      <point x="399.986" y="1120.75" type="curve" smooth="yes"/>
      <point x="399.986" y="1329.2"/>
      <point x="454.662" y="1340"/>
      <point x="637" y="1340" type="curve" smooth="yes"/>
      <point x="808" y="1340"/>
      <point x="856" y="1310"/>
      <point x="856" y="1166" type="curve" smooth="yes"/>
      <point x="856" y="1039"/>
      <point x="850" y="897"/>
      <point x="770" y="897" type="curve" smooth="yes"/>
      <point x="545" y="897" type="line"/>
      <point x="545" y="739" type="line"/>
      <point x="770" y="738" type="line" smooth="yes"/>
      <point x="900.458" y="738"/>
      <point x="922.059" y="661.341"/>
      <point x="922.059" y="505.337" type="curve" smooth="yes"/>
      <point x="922.059" y="483.163"/>
      <point x="921.622" y="459.387"/>
      <point x="921" y="434" type="curve" smooth="yes"/>
      <point x="916" y="214"/>
      <point x="885" y="164"/>
      <point x="736" y="164" type="curve"/>
      <point x="515" y="166" type="line"/>
      <point x="515" y="-4" type="line"/>
      <point x="742" y="-4" type="line" smooth="yes"/>
      <point x="980" y="-4"/>
      <point x="1155" y="82"/>
      <point x="1155" y="364" type="curve" smooth="yes"/>
      <point x="1155" y="481" type="line" smooth="yes"/>
      <point x="1155" y="742"/>
      <point x="1043" y="823"/>
      <point x="910" y="832" type="curve"/>
      <point x="1022" y="848"/>
      <point x="1077" y="952"/>
      <point x="1077" y="1148" type="curve" smooth="yes"/>
      <point x="1077" y="1421"/>
      <point x="947" y="1509"/>
      <point x="637" y="1509" type="curve" smooth="yes"/>
      <point x="317" y="1509"/>
      <point x="166" y="1433"/>
      <point x="166" y="1142" type="curve" smooth="yes"/>
    </contour>
  </outline>
</glyph>
<glyph name="thorn" format="1">
  <advance width="1259"/>
  <unicode hex="00FE"/>
  <outline>
    <contour>
      <point x="645" y="151" type="curve" smooth="yes"/>
      <point x="450" y="151"/>
      <point x="402" y="152"/>
      <point x="402" y="337" type="curve" smooth="yes"/>
      <point x="402" y="422"/>
      <point x="403" y="682"/>
      <point x="403" y="835" type="curve" smooth="yes"/>
      <point x="403" y="996"/>
      <point x="421" y="1014"/>
      <point x="664" y="1014" type="curve" smooth="yes"/>
      <point x="848" y="1014"/>
      <point x="876" y="1008"/>
      <point x="876" y="810" type="curve" smooth="yes"/>
      <point x="876" y="369" type="line" smooth="yes"/>
      <point x="876" y="190"/>
      <point x="847" y="151"/>
    </contour>
    <contour>
      <point x="163" y="-402" type="line"/>
      <point x="404" y="-388" type="line"/>
      <point x="404" y="101" type="line"/>
      <point x="447" y="19"/>
      <point x="569" y="-24"/>
      <point x="759" y="-24" type="curve" smooth="yes"/>
      <point x="1055" y="-24"/>
      <point x="1112" y="123"/>
      <point x="1112" y="510" type="curve" smooth="yes"/>
      <point x="1112" y="593" type="line" smooth="yes"/>
      <point x="1112" y="941"/>
      <point x="1095" y="1187"/>
      <point x="742" y="1187" type="curve" smooth="yes"/>
      <point x="550" y="1187"/>
      <point x="437" y="1146"/>
      <point x="403" y="1063" type="curve"/>
      <point x="403" y="1582" type="line"/>
      <point x="163" y="1569" type="line"/>
    </contour>
  </outline>
</glyph>
<glyph name="dotlessi" format="1">
  <advance width="556"/>
  <unicode hex="0131"/>
  <outline>
    <contour>
      <point x="291" y="0" type="move" name="ogonek"/>
    </contour>
    <contour>
      <point x="280" y="1121" type="move" name="top"/>
    </contour>
    <contour>
      <point x="166" y="1121" type="line"/>
      <point x="166" y="0" type="line"/>
      <point x="407" y="0" type="line"/>
      <point x="407" y="1121" type="line"/>
    </contour>
  </outline>
</glyph>
<glyph name="kgreenlandic" format="1">
  <advance width="1233"/>
  <unicode hex="0138"/>
  <outline>
    <contour>
      <point x="154" y="0" type="line"/>
      <point x="399" y="0" type="line"/>
      <point x="399" y="424" type="line"/>
      <point x="493" y="532" type="line"/>
      <point x="852" y="0" type="line"/>
      <point x="1112" y="0" type="line"/>
      <point x="674" y="647" type="line"/>
      <point x="1078" y="1121" type="line"/>
      <point x="810" y="1121" type="line"/>
      <point x="559" y="809" type="line" smooth="yes"/>
      <point x="512" y="752"/>
      <point x="447" y="679"/>
      <point x="398" y="627" type="curve"/>
      <point x="398" y="670"/>
      <point x="399" y="741"/>
      <point x="399" y="785" type="curve" smooth="yes"/>
      <point x="399" y="1122" type="line"/>
      <point x="154" y="1108" type="line"/>
    </contour>
  </outline>
</glyph>
<glyph name="Lslash" format="1">
  <advance width="1039"/>
  <unicode hex="0141"/>
  <outline>
    <component base="L"/>
    <contour>
      <point x="45" y="547" type="line"/>
      <point x="718" y="878" type="line"/>
      <point x="718" y="1089" type="line"/>
      <point x="45" y="758" type="line"/>
    </contour>
  </outline>
</glyph>
<glyph name="Eng" format="1">
  <advance width="1461"/>
  <unicode hex="014A"/>
  <outline>
    <contour>
      <point x="811" y="-432" type="line"/>
      <point x="1179" y="-432"/>
      <point x="1297" y="-327"/>
      <point x="1297" y="-8" type="curve" smooth="yes"/>
      <point x="1297" y="1503" type="line"/>
      <point x="1087" y="1503" type="line"/>
      <point x="1087" y="414" type="line"/>
      <point x="406" y="1503" type="line"/>
      <point x="163" y="1503" type="line"/>
      <point x="163" y="0" type="line"/>
      <point x="374" y="0" type="line"/>
      <point x="374" y="1121" type="line"/>
      <point x="1079" y="37" type="line"/>
      <point x="1080" y="-118" type="line" smooth="yes"/>
      <point x="1074" y="-209"/>
      <point x="1055" y="-266"/>
      <point x="820" y="-266" type="curve"/>
    </contour>
  </outline>
</glyph>
<glyph name="dotlessj" format="1">
  <advance width="654"/>
  <unicode hex="0237"/>
  <outline>
    <contour>
      <point x="362" y="1121" type="move" name="top"/>
    </contour>
    <contour>
      <point x="240" y="1121" type="line"/>
      <point x="240" y="-64" type="line" smooth="yes"/>
      <point x="240" y="-173"/>
      <point x="140" y="-156"/>
      <point x="69" y="-159" type="curve"/>
      <point x="77" y="-295" type="line"/>
      <point x="121" y="-302"/>
      <point x="162" y="-305"/>
      <point x="203" y="-305" type="curve" smooth="yes"/>
      <point x="413" y="-305"/>
      <point x="482" y="-200"/>
      <point x="482" y="65" type="curve" smooth="yes"/>
      <point x="482" y="1121" type="line"/>
    </contour>
  </outline>
</glyph>
<glyph name="circumflex" format="1">
  <advance width="863"/>
  <unicode hex="02C6"/>
  <outline>
    <contour>
      <point x="447" y="1121" type="move" name="_top"/>
    </contour>
    <contour>
      <point x="717.553" y="1304.34" type="curve" smooth="yes"/>
      <point x="741.641" y="1304.34"/>
      <point x="761.121" y="1321.6"/>
      <point x="761.121" y="1345.49" type="curve" smooth="yes"/>
      <point x="761.121" y="1354.85"/>
      <point x="758.355" y="1364.52"/>
      <point x="753" y="1373" type="curve" smooth="yes"/>
      <point x="552" y="1694" type="line" smooth="yes"/>
      <point x="526" y="1734"/>
      <point x="491" y="1748"/>
      <point x="453" y="1748" type="curve" smooth="yes"/>
      <point x="414" y="1748"/>
      <point x="379" y="1734"/>
      <point x="353" y="1694" type="curve" smooth="yes"/>
      <point x="152" y="1373" type="line" smooth="yes"/>
      <point x="146.729" y="1364.65"/>
      <point x="143.966" y="1355.15"/>
      <point x="143.966" y="1346.01" type="curve" smooth="yes"/>
      <point x="143.966" y="1322.57"/>
      <point x="164.858" y="1304.79"/>
      <point x="188.649" y="1304.79" type="curve" smooth="yes"/>
      <point x="197.805" y="1304.79"/>
      <point x="206.641" y="1307.64"/>
      <point x="213" y="1314" type="curve" smooth="yes"/>
      <point x="453" y="1550" type="line"/>
      <point x="692" y="1314" type="line" smooth="yes"/>
      <point x="698.613" y="1307.39"/>
      <point x="707.904" y="1304.34"/>
    </contour>
  </outline>
</glyph>
<glyph name="caron" format="1">
  <advance width="863"/>
  <unicode hex="02C7"/>
  <outline>
    <contour>
      <point x="447" y="1121" type="move" name="_top"/>
    </contour>
    <contour>
      <point x="187.552" y="1743.66" type="curve" smooth="yes"/>
      <point x="163.655" y="1743.66"/>
      <point x="143.966" y="1725.4"/>
      <point x="143.966" y="1702.49" type="curve" smooth="yes"/>
      <point x="143.966" y="1693.34"/>
      <point x="146.729" y="1683.79"/>
      <point x="152" y="1675" type="curve" smooth="yes"/>
      <point x="353" y="1354" type="line" smooth="yes"/>
      <point x="379" y="1314"/>
      <point x="414" y="1300"/>
      <point x="453" y="1300" type="curve" smooth="yes"/>
      <point x="491" y="1300"/>
      <point x="526" y="1314"/>
      <point x="552" y="1354" type="curve" smooth="yes"/>
      <point x="753" y="1675" type="line" smooth="yes"/>
      <point x="758.355" y="1683.48"/>
      <point x="761.121" y="1693.15"/>
      <point x="761.121" y="1702.51" type="curve" smooth="yes"/>
      <point x="761.121" y="1726.2"/>
      <point x="742.212" y="1743.66"/>
      <point x="717.906" y="1743.66" type="curve" smooth="yes"/>
      <point x="708.127" y="1743.66"/>
      <point x="698.613" y="1740.61"/>
      <point x="692" y="1734" type="curve" smooth="yes"/>
      <point x="453" y="1498" type="line"/>
      <point x="213" y="1734" type="line" smooth="yes"/>
      <point x="206.387" y="1740.61"/>
      <point x="197.096" y="1743.66"/>
    </contour>
  </outline>
</glyph>
<glyph name="ogonek" format="1">
  <advance width="759"/>
  <unicode hex="02DB"/>
  <outline>
    <contour>
      <point x="452" y="0" type="move" name="_ogonek"/>
    </contour>
    <contour>
      <point x="400" y="0" type="line"/>
      <point x="233" y="-99"/>
      <point x="184" y="-220"/>
      <point x="184" y="-326" type="curve" smooth="yes"/>
      <point x="184" y="-455"/>
      <point x="300" y="-526"/>
      <point x="432" y="-526" type="curve" smooth="yes"/>
      <point x="494" y="-526"/>
      <point x="558" y="-510"/>
      <point x="610" y="-478" type="curve"/>
      <point x="586" y="-368" type="line"/>
      <point x="559" y="-377"/>
      <point x="531" y="-382"/>
      <point x="504" y="-382" type="curve" smooth="yes"/>
      <point x="434" y="-382"/>
      <point x="374" y="-349"/>
      <point x="374" y="-263" type="curve" smooth="yes"/>
      <point x="374" y="-173"/>
      <point x="423" y="-57"/>
      <point x="514" y="0" type="curve"/>
    </contour>
  </outline>
</glyph>
<glyph name="dblgravecmb" format="1">
  <advance width="1205"/>
  <unicode hex="030F"/>
  <outline>
    <contour>
      <point x="815" y="1121" type="move" name="_top"/>
    </contour>
    <contour>
      <point x="1092.25" y="1332.54" type="curve" smooth="yes"/>
      <point x="1107.38" y="1332.54"/>
      <point x="1115.14" y="1335.22"/>
      <point x="1115.14" y="1349.42" type="curve" smooth="yes"/>
      <point x="1115.14" y="1355.41"/>
      <point x="1114.14" y="1361.86"/>
      <point x="1112" y="1364" type="curve" smooth="yes"/>
      <point x="1092" y="1382"/>
      <point x="840" y="1640"/>
      <point x="794" y="1675" type="curve" smooth="yes"/>
      <point x="768" y="1695"/>
      <point x="738" y="1710"/>
      <point x="705" y="1710" type="curve" smooth="yes"/>
      <point x="635" y="1710"/>
      <point x="594" y="1657"/>
      <point x="594" y="1601" type="curve" smooth="yes"/>
      <point x="594" y="1559"/>
      <point x="617" y="1511"/>
      <point x="670" y="1487" type="curve" smooth="yes"/>
      <point x="705" y="1470"/>
      <point x="1064" y="1340"/>
      <point x="1089" y="1333" type="curve" smooth="yes"/>
      <point x="1089.81" y="1332.68"/>
      <point x="1090.93" y="1332.54"/>
    </contour>
    <contour>
      <point x="621.907" y="1332.54" type="curve" smooth="yes"/>
      <point x="636.591" y="1332.54"/>
      <point x="645.138" y="1334.85"/>
      <point x="645.138" y="1349.02" type="curve" smooth="yes"/>
      <point x="645.138" y="1355.12"/>
      <point x="644.144" y="1361.86"/>
      <point x="642" y="1364" type="curve" smooth="yes"/>
      <point x="622" y="1382"/>
      <point x="370" y="1640"/>
      <point x="324" y="1675" type="curve" smooth="yes"/>
      <point x="298" y="1695"/>
      <point x="268" y="1710"/>
      <point x="235" y="1710" type="curve" smooth="yes"/>
      <point x="165" y="1710"/>
      <point x="124" y="1657"/>
      <point x="124" y="1601" type="curve" smooth="yes"/>
      <point x="124" y="1559"/>
      <point x="147" y="1511"/>
      <point x="200" y="1487" type="curve" smooth="yes"/>
      <point x="235" y="1470"/>
      <point x="594" y="1340"/>
      <point x="619" y="1333" type="curve" smooth="yes"/>
      <point x="619.646" y="1332.68"/>
      <point x="620.657" y="1332.54"/>
    </contour>
  </outline>
</glyph>
<glyph name="commaaccent" format="1">
  <advance width="563"/>
  <unicode hex="0326"/>
  <outline>
    <contour>
      <point x="298" y="0" type="move" name="_bot"/>
    </contour>
    <contour>
      <point x="153" y="-696" type="line"/>
      <point x="338" y="-696"/>
      <point x="475" y="-533"/>
      <point x="475" y="-356" type="curve" smooth="yes"/>
      <point x="475" y="-225"/>
      <point x="415" y="-156"/>
      <point x="305" y="-156" type="curve" smooth="yes"/>
      <point x="207" y="-156"/>
      <point x="138" y="-218"/>
      <point x="138" y="-310" type="curve" smooth="yes"/>
      <point x="138" y="-404"/>
      <point x="190" y="-465"/>
      <point x="284" y="-471" type="curve"/>
      <point x="284" y="-561"/>
      <point x="230" y="-628"/>
      <point x="153" y="-630" type="curve"/>
    </contour>
  </outline>
</glyph>
<glyph name="Delta" format="1">
  <advance width="1401"/>
  <unicode hex="0394"/>
  <outline>
    <contour>
      <point x="238" y="156" type="line"/>
      <point x="634" y="1299" type="line"/>
      <point x="1032" y="156" type="line"/>
    </contour>
    <contour>
      <point x="69" y="0" type="line"/>
      <point x="1338" y="0" type="line"/>
      <point x="778" y="1502" type="line"/>
      <point x="602" y="1502" type="line"/>
    </contour>
  </outline>
</glyph>
<glyph name="Sigma" format="1">
  <advance width="1220"/>
  <unicode hex="03A3"/>
  <outline>
    <contour>
      <point x="132" y="0" type="line"/>
      <point x="1138" y="0" type="line"/>
      <point x="1138" y="213" type="line"/>
      <point x="412" y="213" type="line"/>
      <point x="876" y="727" type="line"/>
      <point x="876" y="827" type="line"/>
      <point x="421" y="1294" type="line"/>
      <point x="1090" y="1294" type="line"/>
      <point x="1090" y="1503" type="line"/>
      <point x="132" y="1503" type="line"/>
      <point x="132" y="1295" type="line"/>
      <point x="609" y="782" type="line"/>
      <point x="132" y="232" type="line"/>
    </contour>
  </outline>
</glyph>
<glyph name="endash" format="1">
  <advance width="1105"/>
  <unicode hex="2013"/>
  <outline>
    <contour>
      <point x="144" y="566" type="line"/>
      <point x="958" y="566" type="line"/>
      <point x="958" y="783" type="line"/>
      <point x="144" y="783" type="line"/>
    </contour>
  </outline>
</glyph>
<glyph name="quoteleft" format="1">
  <advance width="619"/>
  <unicode hex="2018"/>
  <outline>
    <contour>
      <point x="315" y="998" type="curve" smooth="yes"/>
      <point x="403" y="998"/>
      <point x="462" y="1078"/>
      <point x="462" y="1141" type="curve" smooth="yes"/>
      <point x="462" y="1245"/>
      <point x="413" y="1297"/>
      <point x="324" y="1298" type="curve"/>
      <point x="325" y="1397"/>
      <point x="379" y="1488"/>
      <point x="463" y="1488" type="curve"/>
      <point x="463" y="1561" type="line"/>
      <point x="286" y="1561"/>
      <point x="154" y="1393"/>
      <point x="154" y="1205" type="curve" smooth="yes"/>
      <point x="154" y="1071"/>
      <point x="207" y="998"/>
    </contour>
  </outline>
</glyph>
<glyph name="quotedblright" format="1">
  <advance width="1079"/>
  <unicode hex="201D"/>
  <outline>
    <contour>
      <point x="637" y="999" type="line"/>
      <point x="820" y="999"/>
      <point x="947" y="1175"/>
      <point x="947" y="1355" type="curve" smooth="yes"/>
      <point x="947" y="1472"/>
      <point x="895" y="1561"/>
      <point x="804" y="1561" type="curve" smooth="yes"/>
      <point x="693" y="1561"/>
      <point x="638" y="1482"/>
      <point x="638" y="1419" type="curve" smooth="yes"/>
      <point x="638" y="1315"/>
      <point x="687" y="1263"/>
      <point x="777" y="1261" type="curve"/>
      <point x="776" y="1158"/>
      <point x="723" y="1072"/>
      <point x="637" y="1072" type="curve"/>
    </contour>
    <contour>
      <point x="155" y="999" type="line"/>
      <point x="338" y="999"/>
      <point x="467" y="1175"/>
      <point x="467" y="1355" type="curve" smooth="yes"/>
      <point x="467" y="1471"/>
      <point x="410" y="1561"/>
      <point x="322" y="1561" type="curve" smooth="yes"/>
      <point x="212" y="1561"/>
      <point x="156" y="1485"/>
      <point x="156" y="1419" type="curve" smooth="yes"/>
      <point x="156" y="1315"/>
      <point x="205" y="1263"/>
      <point x="294" y="1261" type="curve"/>
      <point x="293" y="1161"/>
      <point x="240" y="1072"/>
      <point x="155" y="1072" type="curve"/>
    </contour>
  </outline>
</glyph>
<glyph name="quotedblbase" format="1">
  <advance width="790"/>
  <unicode hex="201E"/>
  <outline>
    <contour>
      <point x="567" y="-285" type="curve" smooth="yes"/>
      <point x="573" y="-262"/>
      <point x="648" y="96"/>
      <point x="648" y="182" type="curve" smooth="yes"/>
      <point x="648" y="268"/>
      <point x="610" y="311"/>
      <point x="549" y="311" type="curve" smooth="yes"/>
      <point x="474" y="311"/>
      <point x="450" y="269"/>
      <point x="450" y="169" type="curve" smooth="yes"/>
      <point x="450" y="87"/>
      <point x="527" y="-256"/>
      <point x="532" y="-280" type="curve" smooth="yes"/>
      <point x="534" y="-284"/>
      <point x="548" y="-289"/>
      <point x="550" y="-289" type="curve" smooth="yes"/>
      <point x="550.857" y="-289"/>
      <point x="552.531" y="-289.082"/>
      <point x="554.507" y="-289.082" type="curve" smooth="yes"/>
      <point x="559.449" y="-289.082"/>
      <point x="566.286" y="-288.571"/>
    </contour>
    <contour>
      <point x="258" y="-285" type="curve" smooth="yes"/>
      <point x="263" y="-262"/>
      <point x="339" y="96"/>
      <point x="339" y="182" type="curve" smooth="yes"/>
      <point x="339" y="268"/>
      <point x="300" y="311"/>
      <point x="240" y="311" type="curve" smooth="yes"/>
      <point x="164" y="311"/>
      <point x="141" y="269"/>
      <point x="141" y="169" type="curve" smooth="yes"/>
      <point x="141" y="87"/>
      <point x="217" y="-256"/>
      <point x="223" y="-280" type="curve" smooth="yes"/>
      <point x="224" y="-284"/>
      <point x="238" y="-289"/>
      <point x="241" y="-289" type="curve" smooth="yes"/>
      <point x="241.571" y="-289"/>
      <point x="243.122" y="-289.082"/>
      <point x="245.07" y="-289.082" type="curve" smooth="yes"/>
      <point x="249.939" y="-289.082"/>
      <point x="257.286" y="-288.571"/>
    </contour>
  </outline>
</glyph>
<glyph name="guilsinglleft" format="1">
  <advance width="878"/>
  <unicode hex="2039"/>
  <outline>
    <contour>
      <point x="720" y="245" type="curve" smooth="yes"/>
      <point x="759" y="245"/>
      <point x="788" y="278"/>
      <point x="788" y="315" type="curve" smooth="yes"/>
      <point x="788" y="333"/>
      <point x="780" y="354"/>
      <point x="763" y="371" type="curve" smooth="yes"/>
      <point x="359" y="781" type="line"/>
      <point x="763" y="1190" type="line" smooth="yes"/>
      <point x="783" y="1209"/>
      <point x="788" y="1232"/>
      <point x="788" y="1246" type="curve" smooth="yes"/>
      <point x="788" y="1285.16"/>
      <point x="763.654" y="1316.5"/>
      <point x="728.745" y="1316.5" type="curve" smooth="yes"/>
      <point x="726.217" y="1316.5"/>
      <point x="723.634" y="1316.34"/>
      <point x="721" y="1316" type="curve"/>
      <point x="717.815" y="1316.94"/>
      <point x="714.63" y="1317.38"/>
      <point x="711.426" y="1317.38" type="curve" smooth="yes"/>
      <point x="697.525" y="1317.38"/>
      <point x="683.253" y="1309"/>
      <point x="667" y="1296" type="curve" smooth="yes"/>
      <point x="162" y="906" type="line" smooth="yes"/>
      <point x="114" y="870"/>
      <point x="89" y="828"/>
      <point x="89" y="780" type="curve" smooth="yes"/>
      <point x="89" y="737"/>
      <point x="112" y="693"/>
      <point x="162" y="655" type="curve" smooth="yes"/>
      <point x="667" y="265" type="line" smooth="yes"/>
      <point x="686" y="251"/>
      <point x="704" y="245"/>
    </contour>
  </outline>
</glyph>
<glyph name="fraction" format="1">
  <advance width="1021"/>
  <unicode hex="2044"/>
  <outline>
    <contour>
      <point x="119" y="0" type="line"/>
      <point x="285" y="0" type="line"/>
      <point x="908" y="1503" type="line"/>
      <point x="730" y="1503" type="line"/>
    </contour>
  </outline>
</glyph>
<glyph name="foursuperior" format="1">
  <advance width="1207"/>
  <unicode hex="2074"/>
  <outline>
    <contour>
      <point x="778" y="408" type="line"/>
      <point x="986" y="408" type="line"/>
      <point x="986" y="1091" type="line"/>
      <point x="778" y="1091" type="line"/>
      <point x="778" y="809" type="line"/>
      <point x="427" y="809" type="line"/>
      <point x="427" y="826" type="line"/>
      <point x="747" y="1503" type="line"/>
      <point x="546" y="1503" type="line"/>
      <point x="200" y="814" type="line"/>
      <point x="200" y="648" type="line"/>
      <point x="778" y="648" type="line"/>
    </contour>
  </outline>
</glyph>
<glyph name="trademark" format="1">
  <advance width="1320"/>
  <unicode hex="2122"/>
  <outline>
    <contour>
      <point x="198" y="844" type="line"/>
      <point x="356" y="844" type="line"/>
      <point x="356" y="1411" type="line"/>
      <point x="511" y="1411" type="line"/>
      <point x="511" y="1503" type="line"/>
      <point x="42" y="1503" type="line"/>
      <point x="42" y="1411" type="line"/>
      <point x="198" y="1411" type="line"/>
    </contour>
    <contour>
      <point x="612" y="844" type="line"/>
      <point x="753" y="844" type="line"/>
      <point x="753" y="1245" type="line"/>
      <point x="879" y="844" type="line"/>
      <point x="985" y="844" type="line"/>
      <point x="1113" y="1245" type="line"/>
      <point x="1113" y="844" type="line"/>
      <point x="1265" y="844" type="line"/>
      <point x="1265" y="1503" type="line"/>
      <point x="1079" y="1503" type="line"/>
      <point x="943" y="1050" type="line"/>
      <point x="796" y="1503" type="line"/>
      <point x="612" y="1503" type="line"/>
    </contour>
  </outline>
</glyph>
<glyph name="estimated" format="1">
  <advance width="1245"/>
  <unicode hex="212E"/>
  <outline>
    <contour>
      <point x="369" y="601" type="line"/>
      <point x="384" y="863"/>
      <point x="496" y="1042"/>
      <point x="669" y="1042" type="curve" smooth="yes"/>
      <point x="878" y="1042"/>
      <point x="919" y="836"/>
      <point x="919" y="601" type="curve"/>
    </contour>
    <contour>
      <point x="681" y="-20" type="curve" smooth="yes"/>
      <point x="888" y="-20"/>
      <point x="1023" y="70"/>
      <point x="1123" y="188" type="curve"/>
      <point x="1071" y="239" type="line"/>
      <point x="973" y="134"/>
      <point x="861" y="53"/>
      <point x="681" y="53" type="curve" smooth="yes"/>
      <point x="451" y="53"/>
      <point x="368" y="245"/>
      <point x="367" y="521" type="curve"/>
      <point x="1131" y="521" type="line"/>
      <point x="1131" y="869"/>
      <point x="983" y="1102"/>
      <point x="663" y="1102" type="curve" smooth="yes"/>
      <point x="340" y="1102"/>
      <point x="110" y="861"/>
      <point x="110" y="541" type="curve" smooth="yes"/>
      <point x="110" y="221"/>
      <point x="298" y="-20"/>
    </contour>
  </outline>
</glyph>
<glyph name="uni2215" format="1">
  <advance width="880"/>
  <unicode hex="2215"/>
  <outline>
    <contour>
      <point x="73" y="0" type="line"/>
      <point x="252" y="0" type="line"/>
      <point x="833" y="1473" type="line"/>
      <point x="651" y="1473" type="line"/>
    </contour>
  </outline>
</glyph>
<glyph name="radical" format="1">
  <advance width="1361"/>
  <unicode hex="221A"/>
  <outline>
    <contour>
      <point x="502" y="0" type="line"/>
      <point x="651" y="0" type="line"/>
      <point x="1284" y="1464" type="line"/>
      <point x="1054" y="1464" type="line"/>
      <point x="558" y="251" type="line"/>
      <point x="341" y="658" type="line"/>
      <point x="116" y="658" type="line"/>
    </contour>
  </outline>
</glyph>
<glyph name="infinity" format="1">
  <advance width="1615"/>
  <unicode hex="221E"/>
  <outline>
    <contour>
      <point x="1176" y="509" type="curve" smooth="yes"/>
      <point x="1046" y="509"/>
      <point x="919" y="632"/>
      <point x="864" y="809" type="curve"/>
      <point x="924" y="889"/>
      <point x="1039" y="942"/>
      <point x="1150" y="942" type="curve" smooth="yes"/>
      <point x="1237" y="942"/>
      <point x="1381" y="894"/>
      <point x="1381" y="719" type="curve" smooth="yes"/>
      <point x="1381" y="612"/>
      <point x="1313" y="509"/>
    </contour>
    <contour>
      <point x="444" y="516" type="curve" smooth="yes"/>
      <point x="303" y="516"/>
      <point x="233" y="622"/>
      <point x="233" y="729" type="curve" smooth="yes"/>
      <point x="233" y="834"/>
      <point x="302" y="939"/>
      <point x="440" y="939" type="curve" smooth="yes"/>
      <point x="544" y="939"/>
      <point x="654" y="836"/>
      <point x="706" y="689" type="curve"/>
      <point x="650" y="587"/>
      <point x="542" y="516"/>
    </contour>
    <contour>
      <point x="1566" y="738" type="curve" smooth="yes"/>
      <point x="1566" y="952.273"/>
      <point x="1442.13" y="1170.07"/>
      <point x="1188.81" y="1170.07" type="curve" smooth="yes"/>
      <point x="1044.71" y="1170.07"/>
      <point x="886.51" y="1081.85"/>
      <point x="797" y="953" type="curve"/>
      <point x="735" y="1074"/>
      <point x="590" y="1159"/>
      <point x="444" y="1159" type="curve" smooth="yes"/>
      <point x="180" y="1159"/>
      <point x="48" y="945"/>
      <point x="48" y="732" type="curve" smooth="yes"/>
      <point x="48" y="516"/>
      <point x="181" y="300"/>
      <point x="446" y="300" type="curve" smooth="yes"/>
      <point x="588" y="300"/>
      <point x="723" y="395"/>
      <point x="770" y="533" type="curve"/>
      <point x="845" y="393"/>
      <point x="1012" y="296"/>
      <point x="1180" y="296" type="curve" smooth="yes"/>
      <point x="1180.57" y="295.998"/>
      <point x="1181.15" y="295.997"/>
      <point x="1181.72" y="295.997" type="curve" smooth="yes"/>
      <point x="1437.58" y="295.997"/>
      <point x="1566" y="518.492"/>
    </contour>
  </outline>
</glyph>
<glyph name="lessequal" format="1">
  <advance width="1093"/>
  <unicode hex="2264"/>
  <outline>
    <contour>
      <point x="69" y="0" type="line"/>
      <point x="1022" y="0" type="line"/>
      <point x="1022" y="162" type="line"/>
      <point x="69" y="162" type="line"/>
    </contour>
    <contour>
      <point x="1012" y="273" type="line"/>
      <point x="1012" y="493" type="line"/>
      <point x="326" y="664" type="line"/>
      <point x="1012" y="821" type="line"/>
      <point x="1012" y="1081" type="line"/>
      <point x="72" y="777" type="line"/>
      <point x="72" y="549" type="line"/>
    </contour>
  </outline>
</glyph>
<glyph name="greaterequal" format="1">
  <advance width="1097"/>
  <unicode hex="2265"/>
  <outline>
    <contour>
      <point x="74" y="0" type="line"/>
      <point x="1026" y="0" type="line"/>
      <point x="1026" y="162" type="line"/>
      <point x="74" y="162" type="line"/>
    </contour>
    <contour>
      <point x="70" y="274" type="line"/>
      <point x="1011" y="544" type="line"/>
      <point x="1011" y="773" type="line"/>
      <point x="70" y="1092" type="line"/>
      <point x="70" y="851" type="line"/>
      <point x="758" y="669" type="line"/>
      <point x="70" y="513" type="line"/>
    </contour>
  </outline>
</glyph>
